<svg xmlns="http://www.w3.org/2000/svg" xmlns:xlink="http://www.w3.org/1999/xlink" width="500" zoomAndPan="magnify" viewBox="0 0 375 74.999997" height="100" preserveAspectRatio="xMidYMid meet" version="1.0"><defs><g/><clipPath id="79e41fcf7e"><path d="M 1.554688 5.988281 L 89.695312 5.988281 L 89.695312 67.722656 L 1.554688 67.722656 Z M 1.554688 5.988281 " clip-rule="nonzero"/></clipPath></defs><g clip-path="url(#79e41fcf7e)"><path fill="#ffffff" d="M 24.585938 50.335938 L 21.429688 50.335938 L 21.429688 47.777344 L 24.585938 47.777344 Z M 25.589844 45.835938 L 20.425781 45.835938 C 19.875 45.835938 19.417969 46.277344 19.417969 46.8125 L 19.417969 51.300781 C 19.417969 51.835938 19.875 52.273438 20.425781 52.273438 L 25.589844 52.273438 C 26.144531 52.273438 26.597656 51.835938 26.597656 51.300781 L 26.597656 46.8125 C 26.597656 46.277344 26.144531 45.835938 25.589844 45.835938 Z M 28.023438 40.824219 L 24.871094 40.824219 L 24.871094 38.277344 L 28.023438 38.277344 Z M 30.035156 41.796875 L 30.035156 37.308594 C 30.035156 36.773438 29.582031 36.335938 29.03125 36.335938 L 23.867188 36.335938 C 23.3125 36.335938 22.859375 36.773438 22.859375 37.308594 L 22.859375 41.796875 C 22.859375 42.328125 23.3125 42.765625 23.867188 42.765625 L 29.03125 42.765625 C 29.582031 42.765625 30.035156 42.328125 30.035156 41.796875 Z M 23.421875 59.851562 L 20.265625 59.851562 L 20.265625 57.289062 L 23.421875 57.289062 Z M 24.425781 55.347656 L 19.261719 55.347656 C 18.707031 55.347656 18.253906 55.789062 18.253906 56.320312 L 18.253906 60.820312 C 18.253906 61.351562 18.707031 61.792969 19.261719 61.792969 L 24.425781 61.792969 C 24.980469 61.792969 25.433594 61.351562 25.433594 60.820312 L 25.433594 56.320312 C 25.433594 55.789062 24.980469 55.347656 24.425781 55.347656 Z M 14.523438 50.335938 L 10.109375 50.335938 L 10.109375 47.777344 L 14.523438 47.777344 Z M 15.53125 45.835938 L 9.105469 45.835938 C 8.554688 45.835938 8.097656 46.277344 8.097656 46.8125 L 8.097656 51.300781 C 8.097656 51.835938 8.554688 52.273438 9.105469 52.273438 L 15.53125 52.273438 C 16.082031 52.273438 16.535156 51.835938 16.535156 51.300781 L 16.535156 46.8125 C 16.535156 46.277344 16.082031 45.835938 15.53125 45.835938 Z M 10.109375 38.277344 L 17.421875 38.277344 L 17.421875 40.824219 L 10.109375 40.824219 Z M 9.105469 42.765625 L 18.425781 42.765625 C 18.980469 42.765625 19.433594 42.328125 19.433594 41.796875 L 19.433594 37.308594 C 19.433594 36.773438 18.980469 36.335938 18.425781 36.335938 L 9.105469 36.335938 C 8.554688 36.335938 8.097656 36.773438 8.097656 37.308594 L 8.097656 41.796875 C 8.097656 42.328125 8.554688 42.765625 9.105469 42.765625 Z M 13.265625 59.851562 L 10.109375 59.851562 L 10.109375 57.289062 L 13.265625 57.289062 Z M 14.269531 55.347656 L 9.105469 55.347656 C 8.554688 55.347656 8.097656 55.789062 8.097656 56.320312 L 8.097656 60.820312 C 8.097656 61.351562 8.554688 61.792969 9.105469 61.792969 L 14.269531 61.792969 C 14.824219 61.792969 15.277344 61.351562 15.277344 60.820312 L 15.277344 56.320312 C 15.277344 55.789062 14.824219 55.347656 14.269531 55.347656 Z M 67.449219 59.851562 L 64.296875 59.851562 L 64.296875 57.289062 L 67.449219 57.289062 Z M 68.449219 55.347656 L 63.292969 55.347656 C 62.734375 55.347656 62.285156 55.789062 62.285156 56.320312 L 62.285156 60.820312 C 62.285156 61.351562 62.734375 61.792969 63.292969 61.792969 L 68.449219 61.792969 C 69.007812 61.792969 69.460938 61.351562 69.460938 60.820312 L 69.460938 56.320312 C 69.460938 55.789062 69.007812 55.347656 68.449219 55.347656 Z M 81.140625 40.824219 L 77.984375 40.824219 L 77.984375 38.277344 L 81.140625 38.277344 Z M 82.144531 36.339844 L 76.980469 36.339844 C 76.429688 36.339844 75.972656 36.773438 75.972656 37.308594 L 75.972656 41.796875 C 75.972656 42.328125 76.429688 42.765625 76.980469 42.765625 L 82.144531 42.765625 C 82.699219 42.765625 83.152344 42.328125 83.152344 41.796875 L 83.152344 37.308594 C 83.152344 36.773438 82.699219 36.339844 82.144531 36.339844 Z M 81.140625 50.335938 L 71.773438 50.335938 L 71.773438 47.777344 L 81.140625 47.777344 Z M 82.144531 45.835938 L 70.769531 45.835938 C 70.214844 45.835938 69.761719 46.277344 69.761719 46.8125 L 69.761719 51.300781 C 69.761719 51.835938 70.214844 52.273438 70.769531 52.273438 L 82.144531 52.273438 C 82.699219 52.273438 83.152344 51.835938 83.152344 51.300781 L 83.152344 46.8125 C 83.152344 46.277344 82.699219 45.835938 82.144531 45.835938 Z M 65.058594 50.335938 L 61.902344 50.335938 L 61.902344 47.777344 L 65.058594 47.777344 Z M 66.0625 52.273438 C 66.613281 52.273438 67.070312 51.835938 67.070312 51.300781 L 67.070312 46.808594 C 67.070312 46.277344 66.613281 45.835938 66.0625 45.835938 L 60.898438 45.835938 C 60.347656 45.835938 59.890625 46.277344 59.890625 46.808594 L 59.890625 51.300781 C 59.890625 51.835938 60.347656 52.273438 60.898438 52.273438 Z M 56.660156 59.851562 L 31.34375 59.851562 L 31.34375 57.289062 L 56.660156 57.289062 Z M 57.664062 55.347656 L 30.335938 55.347656 C 29.78125 55.347656 29.332031 55.789062 29.332031 56.320312 L 29.332031 60.820312 C 29.332031 61.351562 29.78125 61.792969 30.335938 61.792969 L 57.664062 61.792969 C 58.214844 61.792969 58.671875 61.351562 58.671875 60.820312 L 58.671875 56.320312 C 58.671875 55.789062 58.214844 55.347656 57.664062 55.347656 Z M 81.140625 59.851562 L 76.054688 59.851562 L 76.054688 57.289062 L 81.140625 57.289062 Z M 82.144531 55.347656 L 75.050781 55.347656 C 74.496094 55.347656 74.042969 55.789062 74.042969 56.320312 L 74.042969 60.820312 C 74.042969 61.351562 74.496094 61.792969 75.050781 61.792969 L 82.144531 61.792969 C 82.699219 61.792969 83.152344 61.351562 83.152344 60.820312 L 83.152344 56.320312 C 83.152344 55.789062 82.699219 55.347656 82.144531 55.347656 Z M 31.550781 47.777344 L 34.703125 47.777344 L 34.703125 50.335938 L 31.550781 50.335938 Z M 29.539062 46.808594 L 29.539062 51.300781 C 29.539062 51.835938 29.988281 52.273438 30.546875 52.273438 L 35.710938 52.273438 C 36.261719 52.273438 36.714844 51.835938 36.714844 51.300781 L 36.714844 46.808594 C 36.714844 46.277344 36.261719 45.835938 35.710938 45.835938 L 30.546875 45.835938 C 29.988281 45.835938 29.539062 46.277344 29.539062 46.808594 Z M 67.363281 38.277344 L 70.515625 38.277344 L 70.515625 40.824219 L 67.363281 40.824219 Z M 66.359375 42.765625 L 71.519531 42.765625 C 72.074219 42.765625 72.527344 42.328125 72.527344 41.796875 L 72.527344 37.308594 C 72.527344 36.773438 72.074219 36.335938 71.519531 36.335938 L 66.359375 36.335938 C 65.804688 36.335938 65.355469 36.773438 65.355469 37.308594 L 65.355469 41.796875 C 65.355469 42.328125 65.804688 42.765625 66.359375 42.765625 Z M 56.738281 38.277344 L 59.894531 38.277344 L 59.894531 40.824219 L 56.738281 40.824219 Z M 55.734375 42.765625 L 60.898438 42.765625 C 61.453125 42.765625 61.90625 42.328125 61.90625 41.796875 L 61.90625 37.308594 C 61.90625 36.773438 61.453125 36.335938 60.898438 36.335938 L 55.734375 36.335938 C 55.183594 36.335938 54.726562 36.773438 54.726562 37.308594 L 54.726562 41.796875 C 54.726562 42.328125 55.183594 42.765625 55.734375 42.765625 Z M 41.667969 47.777344 L 44.824219 47.777344 L 44.824219 50.335938 L 41.667969 50.335938 Z M 39.660156 46.808594 L 39.660156 51.300781 C 39.660156 51.835938 40.109375 52.273438 40.664062 52.273438 L 45.828125 52.273438 C 46.378906 52.273438 46.835938 51.835938 46.835938 51.300781 L 46.835938 46.808594 C 46.835938 46.277344 46.378906 45.835938 45.828125 45.835938 L 40.664062 45.835938 C 40.109375 45.835938 39.660156 46.277344 39.660156 46.808594 Z M 54.941406 50.335938 L 51.785156 50.335938 L 51.785156 47.777344 L 54.941406 47.777344 Z M 50.785156 45.835938 C 50.226562 45.835938 49.773438 46.277344 49.773438 46.8125 L 49.773438 51.300781 C 49.773438 51.835938 50.226562 52.273438 50.785156 52.273438 L 55.945312 52.273438 C 56.5 52.273438 56.953125 51.835938 56.953125 51.300781 L 56.953125 46.8125 C 56.953125 46.277344 56.5 45.835938 55.945312 45.835938 Z M 35.492188 38.277344 L 38.644531 38.277344 L 38.644531 40.824219 L 35.492188 40.824219 Z M 34.488281 42.765625 L 39.652344 42.765625 C 40.207031 42.765625 40.65625 42.328125 40.65625 41.796875 L 40.65625 37.308594 C 40.65625 36.773438 40.207031 36.335938 39.652344 36.335938 L 34.488281 36.335938 C 33.9375 36.335938 33.480469 36.773438 33.480469 37.308594 L 33.480469 41.796875 C 33.480469 42.328125 33.9375 42.765625 34.488281 42.765625 Z M 46.113281 38.277344 L 49.269531 38.277344 L 49.269531 40.824219 L 46.113281 40.824219 Z M 45.109375 42.765625 L 50.273438 42.765625 C 50.828125 42.765625 51.28125 42.328125 51.28125 41.796875 L 51.28125 37.308594 C 51.28125 36.773438 50.828125 36.335938 50.273438 36.335938 L 45.109375 36.335938 C 44.558594 36.335938 44.105469 36.773438 44.105469 37.308594 L 44.105469 41.796875 C 44.105469 42.328125 44.558594 42.765625 45.109375 42.765625 Z M 87.683594 63.839844 C 87.683594 64.90625 86.773438 65.78125 85.667969 65.78125 L 5.582031 65.78125 C 4.472656 65.78125 3.566406 64.90625 3.566406 63.839844 L 3.566406 34.289062 C 3.566406 33.222656 4.472656 32.347656 5.582031 32.347656 L 77.519531 32.347656 L 77.519531 25.785156 C 77.519531 24.320312 76.285156 23.128906 74.769531 23.128906 L 26.175781 23.128906 C 23.648438 23.128906 21.589844 21.144531 21.589844 18.703125 L 21.589844 7.929688 L 23.425781 7.929688 L 23.425781 18.703125 C 23.425781 20.167969 24.660156 21.359375 26.175781 21.359375 L 74.769531 21.359375 C 77.296875 21.359375 79.355469 23.34375 79.355469 25.785156 L 79.355469 32.347656 L 85.667969 32.347656 C 86.773438 32.347656 87.683594 33.222656 87.683594 34.289062 Z M 85.667969 30.40625 L 81.367188 30.40625 L 81.367188 25.785156 C 81.367188 22.273438 78.40625 19.417969 74.769531 19.417969 L 26.175781 19.417969 C 25.769531 19.417969 25.4375 19.097656 25.4375 18.703125 L 25.4375 5.988281 L 19.578125 5.988281 L 19.578125 18.703125 C 19.578125 22.214844 22.539062 25.070312 26.175781 25.070312 L 74.769531 25.070312 C 75.175781 25.070312 75.507812 25.390625 75.507812 25.785156 L 75.507812 30.40625 L 5.582031 30.40625 C 3.359375 30.40625 1.554688 32.148438 1.554688 34.289062 L 1.554688 63.839844 C 1.554688 65.980469 3.359375 67.722656 5.582031 67.722656 L 85.667969 67.722656 C 87.890625 67.722656 89.695312 65.980469 89.695312 63.839844 L 89.695312 34.289062 C 89.695312 32.148438 87.890625 30.40625 85.667969 30.40625 " fill-opacity="1" fill-rule="nonzero"/></g><g fill="#ffffff" fill-opacity="1"><g transform="translate(93.72528, 56.010592)"><g><path d="M 4.75 -8.515625 L 12.609375 -5.75 L 12.609375 -1.890625 L 0.75 -6.921875 L 0.75 -10.171875 L 12.609375 -15.203125 L 12.609375 -11.34375 Z M 4.75 -8.515625 "/></g></g><g transform="translate(108.083883, 56.010592)"><g><path d="M 14.953125 -7.3125 C 14.953125 -5.019531 14.429688 -3.179688 13.390625 -1.796875 C 12.347656 -0.410156 10.9375 0.28125 9.15625 0.28125 C 7.65625 0.28125 6.441406 -0.242188 5.515625 -1.296875 L 5.515625 5.734375 L 1.53125 5.734375 L 1.53125 -14.90625 L 5.21875 -14.90625 L 5.359375 -13.453125 C 6.328125 -14.609375 7.585938 -15.1875 9.140625 -15.1875 C 10.972656 -15.1875 12.398438 -14.503906 13.421875 -13.140625 C 14.441406 -11.785156 14.953125 -9.910156 14.953125 -7.515625 Z M 10.96875 -7.609375 C 10.96875 -8.992188 10.722656 -10.0625 10.234375 -10.8125 C 9.742188 -11.570312 9.03125 -11.953125 8.09375 -11.953125 C 6.84375 -11.953125 5.984375 -11.472656 5.515625 -10.515625 L 5.515625 -4.40625 C 5.992188 -3.425781 6.859375 -2.9375 8.109375 -2.9375 C 10.015625 -2.9375 10.96875 -4.492188 10.96875 -7.609375 Z M 10.96875 -7.609375 "/></g></g><g transform="translate(123.972049, 56.010592)"><g><path d="M 9.65625 -8.5625 L 1.65625 -11.359375 L 1.65625 -15.1875 L 13.65625 -10.15625 L 13.65625 -6.921875 L 1.65625 -1.875 L 1.65625 -5.71875 Z M 9.65625 -8.5625 "/></g></g><g transform="translate(138.55113, 56.010592)"><g><path d="M 5.921875 -3.328125 L 14.703125 -3.328125 L 14.703125 0 L 1.796875 0 L 1.796875 -20.0625 L 5.921875 -20.0625 Z M 5.921875 -3.328125 "/></g></g><g transform="translate(153.832983, 56.010592)"><g><path d="M 10.453125 -1.515625 C 9.472656 -0.316406 8.113281 0.28125 6.375 0.28125 C 4.78125 0.28125 3.5625 -0.175781 2.71875 -1.09375 C 1.875 -2.019531 1.445312 -3.367188 1.4375 -5.140625 L 1.4375 -14.90625 L 5.421875 -14.90625 L 5.421875 -5.28125 C 5.421875 -3.726562 6.125 -2.953125 7.53125 -2.953125 C 8.882812 -2.953125 9.8125 -3.421875 10.3125 -4.359375 L 10.3125 -14.90625 L 14.3125 -14.90625 L 14.3125 0 L 10.5625 0 Z M 10.453125 -1.515625 "/></g></g><g transform="translate(169.62469, 56.010592)"><g><path d="M 5.734375 0 L 1.734375 0 L 1.734375 -14.90625 L 5.734375 -14.90625 Z M 1.5 -18.765625 C 1.5 -19.359375 1.695312 -19.847656 2.09375 -20.234375 C 2.5 -20.617188 3.046875 -20.8125 3.734375 -20.8125 C 4.410156 -20.8125 4.953125 -20.617188 5.359375 -20.234375 C 5.765625 -19.847656 5.96875 -19.359375 5.96875 -18.765625 C 5.96875 -18.160156 5.757812 -17.664062 5.34375 -17.28125 C 4.9375 -16.894531 4.398438 -16.703125 3.734375 -16.703125 C 3.066406 -16.703125 2.523438 -16.894531 2.109375 -17.28125 C 1.703125 -17.664062 1.5 -18.160156 1.5 -18.765625 Z M 1.5 -18.765625 "/></g></g><g transform="translate(177.107148, 56.010592)"><g><path d="M 6.109375 -3.203125 L 13.390625 -3.203125 L 13.390625 0 L 1.015625 0 L 1.015625 -2.421875 L 8.03125 -11.6875 L 1.21875 -11.6875 L 1.21875 -14.90625 L 13.171875 -14.90625 L 13.171875 -12.546875 Z M 6.109375 -3.203125 "/></g></g><g transform="translate(191.465751, 56.010592)"><g/></g><g transform="translate(198.493475, 56.010592)"><g><path d="M 13.859375 -8.203125 L 5.921875 -8.203125 L 5.921875 0 L 1.796875 0 L 1.796875 -20.0625 L 14.859375 -20.0625 L 14.859375 -16.71875 L 5.921875 -16.71875 L 5.921875 -11.53125 L 13.859375 -11.53125 Z M 13.859375 -8.203125 "/></g></g><g transform="translate(213.954465, 56.010592)"><g><path d="M 8.390625 0.28125 C 6.203125 0.28125 4.421875 -0.390625 3.046875 -1.734375 C 1.671875 -3.078125 0.984375 -4.863281 0.984375 -7.09375 L 0.984375 -7.484375 C 0.984375 -8.984375 1.273438 -10.320312 1.859375 -11.5 C 2.441406 -12.675781 3.257812 -13.582031 4.3125 -14.21875 C 5.375 -14.863281 6.585938 -15.1875 7.953125 -15.1875 C 9.992188 -15.1875 11.597656 -14.539062 12.765625 -13.25 C 13.929688 -11.96875 14.515625 -10.144531 14.515625 -7.78125 L 14.515625 -6.15625 L 5.03125 -6.15625 C 5.15625 -5.1875 5.539062 -4.40625 6.1875 -3.8125 C 6.84375 -3.226562 7.664062 -2.9375 8.65625 -2.9375 C 10.1875 -2.9375 11.382812 -3.492188 12.25 -4.609375 L 14.203125 -2.40625 C 13.609375 -1.5625 12.800781 -0.898438 11.78125 -0.421875 C 10.757812 0.046875 9.628906 0.28125 8.390625 0.28125 Z M 7.9375 -11.953125 C 7.144531 -11.953125 6.503906 -11.6875 6.015625 -11.15625 C 5.523438 -10.625 5.210938 -9.863281 5.078125 -8.875 L 10.609375 -8.875 L 10.609375 -9.1875 C 10.585938 -10.070312 10.347656 -10.753906 9.890625 -11.234375 C 9.429688 -11.710938 8.78125 -11.953125 7.9375 -11.953125 Z M 7.9375 -11.953125 "/></g></g><g transform="translate(229.208759, 56.010592)"><g><path d="M 9.90625 -11.171875 C 9.363281 -11.242188 8.882812 -11.28125 8.46875 -11.28125 C 6.96875 -11.28125 5.984375 -10.769531 5.515625 -9.75 L 5.515625 0 L 1.53125 0 L 1.53125 -14.90625 L 5.296875 -14.90625 L 5.40625 -13.125 C 6.195312 -14.5 7.300781 -15.1875 8.71875 -15.1875 C 9.164062 -15.1875 9.582031 -15.125 9.96875 -15 Z M 9.90625 -11.171875 "/></g></g><g transform="translate(239.502306, 56.010592)"><g><path d="M 5.1875 -14.90625 L 5.3125 -13.1875 C 6.382812 -14.519531 7.816406 -15.1875 9.609375 -15.1875 C 11.179688 -15.1875 12.351562 -14.722656 13.125 -13.796875 C 13.894531 -12.867188 14.289062 -11.476562 14.3125 -9.625 L 14.3125 0 L 10.328125 0 L 10.328125 -9.53125 C 10.328125 -10.375 10.144531 -10.988281 9.78125 -11.375 C 9.414062 -11.757812 8.804688 -11.953125 7.953125 -11.953125 C 6.828125 -11.953125 5.984375 -11.472656 5.421875 -10.515625 L 5.421875 0 L 1.453125 0 L 1.453125 -14.90625 Z M 5.1875 -14.90625 "/></g></g><g transform="translate(255.307793, 56.010592)"><g><path d="M 10.171875 0 C 9.984375 -0.351562 9.847656 -0.800781 9.765625 -1.34375 C 8.804688 -0.257812 7.550781 0.28125 6 0.28125 C 4.539062 0.28125 3.332031 -0.140625 2.375 -0.984375 C 1.414062 -1.835938 0.9375 -2.90625 0.9375 -4.1875 C 0.9375 -5.769531 1.519531 -6.984375 2.6875 -7.828125 C 3.863281 -8.671875 5.554688 -9.097656 7.765625 -9.109375 L 9.609375 -9.109375 L 9.609375 -9.96875 C 9.609375 -10.65625 9.429688 -11.203125 9.078125 -11.609375 C 8.722656 -12.023438 8.164062 -12.234375 7.40625 -12.234375 C 6.726562 -12.234375 6.195312 -12.070312 5.8125 -11.75 C 5.4375 -11.425781 5.25 -10.988281 5.25 -10.4375 L 1.265625 -10.4375 C 1.265625 -11.289062 1.53125 -12.085938 2.0625 -12.828125 C 2.59375 -13.566406 3.34375 -14.144531 4.3125 -14.5625 C 5.289062 -14.976562 6.390625 -15.1875 7.609375 -15.1875 C 9.441406 -15.1875 10.894531 -14.722656 11.96875 -13.796875 C 13.050781 -12.878906 13.59375 -11.582031 13.59375 -9.90625 L 13.59375 -3.4375 C 13.601562 -2.03125 13.800781 -0.960938 14.1875 -0.234375 L 14.1875 0 Z M 6.875 -2.765625 C 7.457031 -2.765625 8 -2.894531 8.5 -3.15625 C 9 -3.425781 9.367188 -3.78125 9.609375 -4.21875 L 9.609375 -6.78125 L 8.109375 -6.78125 C 6.117188 -6.78125 5.0625 -6.09375 4.9375 -4.71875 L 4.921875 -4.484375 C 4.921875 -3.984375 5.09375 -3.570312 5.4375 -3.25 C 5.789062 -2.925781 6.269531 -2.765625 6.875 -2.765625 Z M 6.875 -2.765625 "/></g></g><g transform="translate(270.438068, 56.010592)"><g><path d="M 5.1875 -14.90625 L 5.3125 -13.1875 C 6.382812 -14.519531 7.816406 -15.1875 9.609375 -15.1875 C 11.179688 -15.1875 12.351562 -14.722656 13.125 -13.796875 C 13.894531 -12.867188 14.289062 -11.476562 14.3125 -9.625 L 14.3125 0 L 10.328125 0 L 10.328125 -9.53125 C 10.328125 -10.375 10.144531 -10.988281 9.78125 -11.375 C 9.414062 -11.757812 8.804688 -11.953125 7.953125 -11.953125 C 6.828125 -11.953125 5.984375 -11.472656 5.421875 -10.515625 L 5.421875 0 L 1.453125 0 L 1.453125 -14.90625 Z M 5.1875 -14.90625 "/></g></g><g transform="translate(286.243555, 56.010592)"><g><path d="M 0.90625 -7.5625 C 0.90625 -9.882812 1.425781 -11.734375 2.46875 -13.109375 C 3.507812 -14.492188 4.9375 -15.1875 6.75 -15.1875 C 8.195312 -15.1875 9.394531 -14.644531 10.34375 -13.5625 L 10.34375 -21.171875 L 14.34375 -21.171875 L 14.34375 0 L 10.75 0 L 10.546875 -1.578125 C 9.554688 -0.335938 8.28125 0.28125 6.71875 0.28125 C 4.96875 0.28125 3.5625 -0.410156 2.5 -1.796875 C 1.4375 -3.179688 0.90625 -5.101562 0.90625 -7.5625 Z M 4.890625 -7.28125 C 4.890625 -5.882812 5.132812 -4.8125 5.625 -4.0625 C 6.113281 -3.320312 6.820312 -2.953125 7.75 -2.953125 C 8.976562 -2.953125 9.84375 -3.46875 10.34375 -4.5 L 10.34375 -10.390625 C 9.851562 -11.429688 8.992188 -11.953125 7.765625 -11.953125 C 5.847656 -11.953125 4.890625 -10.394531 4.890625 -7.28125 Z M 4.890625 -7.28125 "/></g></g><g transform="translate(302.145501, 56.010592)"><g><path d="M 0.90625 -7.59375 C 0.90625 -9.070312 1.191406 -10.390625 1.765625 -11.546875 C 2.335938 -12.703125 3.15625 -13.597656 4.21875 -14.234375 C 5.289062 -14.867188 6.535156 -15.1875 7.953125 -15.1875 C 9.960938 -15.1875 11.601562 -14.566406 12.875 -13.328125 C 14.144531 -12.097656 14.851562 -10.429688 15 -8.328125 L 15.03125 -7.296875 C 15.03125 -5.015625 14.390625 -3.179688 13.109375 -1.796875 C 11.835938 -0.410156 10.125 0.28125 7.96875 0.28125 C 5.820312 0.28125 4.109375 -0.40625 2.828125 -1.78125 C 1.546875 -3.164062 0.90625 -5.039062 0.90625 -7.40625 Z M 4.890625 -7.296875 C 4.890625 -5.890625 5.15625 -4.8125 5.6875 -4.0625 C 6.21875 -3.3125 6.984375 -2.9375 7.984375 -2.9375 C 8.941406 -2.9375 9.691406 -3.304688 10.234375 -4.046875 C 10.773438 -4.785156 11.046875 -5.96875 11.046875 -7.59375 C 11.046875 -8.976562 10.773438 -10.050781 10.234375 -10.8125 C 9.691406 -11.570312 8.929688 -11.953125 7.953125 -11.953125 C 6.972656 -11.953125 6.21875 -11.570312 5.6875 -10.8125 C 5.15625 -10.0625 4.890625 -8.890625 4.890625 -7.296875 Z M 4.890625 -7.296875 "/></g></g><g transform="translate(318.102567, 56.010592)"><g><path d="M 4.75 -8.515625 L 12.609375 -5.75 L 12.609375 -1.890625 L 0.75 -6.921875 L 0.75 -10.171875 L 12.609375 -15.203125 L 12.609375 -11.34375 Z M 4.75 -8.515625 "/></g></g><g transform="translate(332.46117, 56.010592)"><g><path d="M 2.78125 1.71875 L -0.171875 1.71875 L 7.203125 -20.0625 L 10.171875 -20.0625 Z M 2.78125 1.71875 "/></g></g><g transform="translate(343.002754, 56.010592)"><g><path d="M 14.953125 -7.3125 C 14.953125 -5.019531 14.429688 -3.179688 13.390625 -1.796875 C 12.347656 -0.410156 10.9375 0.28125 9.15625 0.28125 C 7.65625 0.28125 6.441406 -0.242188 5.515625 -1.296875 L 5.515625 5.734375 L 1.53125 5.734375 L 1.53125 -14.90625 L 5.21875 -14.90625 L 5.359375 -13.453125 C 6.328125 -14.609375 7.585938 -15.1875 9.140625 -15.1875 C 10.972656 -15.1875 12.398438 -14.503906 13.421875 -13.140625 C 14.441406 -11.785156 14.953125 -9.910156 14.953125 -7.515625 Z M 10.96875 -7.609375 C 10.96875 -8.992188 10.722656 -10.0625 10.234375 -10.8125 C 9.742188 -11.570312 9.03125 -11.953125 8.09375 -11.953125 C 6.84375 -11.953125 5.984375 -11.472656 5.515625 -10.515625 L 5.515625 -4.40625 C 5.992188 -3.425781 6.859375 -2.9375 8.109375 -2.9375 C 10.015625 -2.9375 10.96875 -4.492188 10.96875 -7.609375 Z M 10.96875 -7.609375 "/></g></g><g transform="translate(358.890921, 56.010592)"><g><path d="M 9.65625 -8.5625 L 1.65625 -11.359375 L 1.65625 -15.1875 L 13.65625 -10.15625 L 13.65625 -6.921875 L 1.65625 -1.875 L 1.65625 -5.71875 Z M 9.65625 -8.5625 "/></g></g></g></svg>